<?xml version="1.0" encoding="UTF-8"?>
<svg id="_圖層_1" data-name="圖層 1" xmlns="http://www.w3.org/2000/svg" viewBox="0 0 186.99 187.3">
  <defs>
    <style>
      .cls-1 {
        stroke-width: 0px;
      }
    </style>
  </defs>
  <path class="cls-1" d="M65.5,123.76c-4.3-13.32-.98-25.84,4.83-37.73,4.3-8.8,6.68-18.22,5.71-27.46-1.93-18.47-8.52-35.84-21.59-49.3-13.1-13.47-22.18-11.42-31.39.68-9.17,12.05-13.9,26.33-18.34,40.62-3.98,12.79-6.96,25.69-2.48,39.05,4.3,12.8,8.41,25.67,13.87,38.05,1.81,4.11,5.52,9.32,4.3,12.45-3.23,8.3,1.07,14.82,2.85,21.83,4.04,15.9,14.69,25.3,27.61,25.36,12.77.05,20.68-5.69,23.17-18.44,2.7-13.88,3.01-27.73-6.39-39.89-1.11-1.44-1.57-3.42-2.15-5.21ZM55.14,159.5c-.12.47-.35.57-.57.67-.46.2-.92.31-1.4.29-.67-.03-1.35,0-2.02,0-.71,0-1.41.03-2.12,0-.55-.03-1.11-.1-1.66-.16-.25.15-.6.21-1.01.17-.53-.05-.9-.5-.89-1.11,0-.63.06-1.26.06-1.89,0-.46-.06-.92-.06-1.38,0-.48.11-.97.05-1.44-.42-3.66-.08-7.33-.19-10.99,0-.25.02-.51.07-.76.03-.13.13-.26.23-.36.31-.28,1.22-.37,1.59-.18.47.23.57.69.67,1.13.2.92.31,1.84.29,2.79-.03,1.35,0,2.69,0,4.04,0,1.41.03,2.83,0,4.24-.03,1.07-.09,2.14-.16,3.21.08,0,.16-.02.24-.02.24,0,.49.11.72.05,1.83-.42,3.66-.08,5.49-.19.13,0,.26.02.38.07.07.03.13.13.18.23.14.31.18,1.22.09,1.59Z"/>
  <path class="cls-1" d="M186.51,70.64c-4.17-20.71-10.46-41-21.52-59.27-6.99-11.55-18.97-12.46-28.93-3.1-5.24,4.93-10.18,10.2-13.34,16.58-7.57,15.29-15.12,30.88-10.78,48.69,2.07,8.47,5.72,16.54,8.4,24.88,3.27,10.15,3.63,21.41-2.43,29.49-7.2,9.61-6.86,20.15-9.12,28.5,0,3.42-.08,4.86.01,6.28.67,10.98,7.69,20.25,17.71,23.43,9.84,3.13,19.82-.04,26.45-8.94,3.81-5.12,7.31-10.54,8.45-17.07.85-4.87,5.45-9.25,3.69-14.16-1.58-4.43-.68-7.94,1.09-11.46,5.64-11.28,9.83-23.14,14.29-34.88,3.53-9.31,7.99-19.21,6.03-28.95ZM134.95,159.98c-.08.38-.23.49-.62.49-.48,0-.96,0-1.45,0-.46,0-.69-.23-.69-.69,0-2.33,0-4.66,0-6.99s-.01-4.53,0-6.79c0-1.04.22-2.04.87-2.88.61-.78,1.4-1.23,2.4-1.36.71-.09,1.36.02,1.99.3.92.4,1.52,1.13,1.85,2.06.42,1.18.52,2.38.08,3.59-.16.45-.55.76-1.09.76-.43,0-.81-.15-.95-.61-.19-.64-.34-1.29-.53-1.93-.11-.37-.16-.78-.57-1-.35-.18-.86-.09-1.09.23-.23.33-.37.69-.36,1.11,0,.51-.05,1.02-.06,1.53,0,.43.07.87.06,1.3-.03,1.6-.09,3.19-.13,4.78-.02.81.06,1.61.17,2.41.15,1.03.12,2.08.16,3.13,0,.18-.03.37-.07.55ZM143.51,160.34c-.42.24-.89.14-1.16-.26-.27-.41-.51-.84-.78-1.25-.2-.3-.45-.56-.65-.86-.21-.31-.35-.68-.6-.96-1.93-2.15-3.28-4.7-4.97-7.01-.12-.16-.21-.34-.28-.53-.04-.1-.02-.24.02-.35.11-.34.76-.86,1.12-.93.46-.09.74.15,1,.39.55.49,1.05,1.03,1.45,1.66.57.89,1.18,1.74,1.77,2.62.62.91,1.26,1.82,1.86,2.75.55.86,1.06,1.76,1.58,2.64.15.25.28.52.39.8.18.48-.09.95-.74,1.31Z"/>
</svg>